<?xml version="1.0" encoding="UTF-8"?>
<!DOCTYPE svg PUBLIC "-//W3C//DTD SVG 1.1//EN" "http://www.w3.org/Graphics/SVG/1.1/DTD/svg11.dtd">
<!-- Creator: CorelDRAW 2020 (64-Bit) -->
<svg xmlns="http://www.w3.org/2000/svg" xml:space="preserve" width="2.71106in" height="0.929791in" version="1.1" style="shape-rendering:geometricPrecision; text-rendering:geometricPrecision; image-rendering:optimizeQuality; fill-rule:evenodd; clip-rule:evenodd"
viewBox="0 0 978.3 335.52"
 xmlns:xlink="http://www.w3.org/1999/xlink"
 xmlns:xodm="http://www.corel.com/coreldraw/odm/2003">
 <defs>
  <style type="text/css">
   <![CDATA[
    .fil0 {fill:black;fill-opacity:0.200000}
   ]]>
  </style>
 </defs>
 <g id="Layer_x0020_1">
  <metadata id="CorelCorpID_0Corel-Layer"/>
  <path class="fil0" d="M538.86 0.54c-99.41,3.22 -199.19,14.07 -291.1,37.75 -64.68,16.67 -204.75,58.86 -240.07,128.79 -14.99,29.69 -6.63,52.65 12.62,75.41 3.65,4.31 6.76,6.32 10.73,9.93 23.84,21.69 72.81,41.77 112.19,52.38 175.05,47.16 412.41,36.37 587.65,-7.63 60.39,-15.16 152.75,-45.27 201.49,-85.47 23.33,-19.24 48.5,-43.45 45.72,-77.34 -3.38,-41.09 -48.72,-66.6 -81.63,-81.98 -92.74,-43.33 -253.07,-55.23 -357.6,-51.85zm-107.99 112.22c-13.23,2.94 -13.93,12.13 -13.93,26.37l-0.01 79.53c0.32,21.84 24.93,24.17 32.27,9.11 3.28,-6.72 1.77,-48.62 1.77,-57.63 0,-13.18 0.26,-26.62 0.01,-39.77 -0.21,-11.07 -8.56,-20.17 -20.11,-17.6zm-225.92 81.64l39.3 0c-0.28,-2.81 -14.62,-33.26 -16.97,-37.43 -2.38,2.93 -22.03,34.96 -22.33,37.43zm425.46 -0.02l40.5 0.01 -17.38 -38.28c-2.42,2.77 -22.56,35.98 -23.12,38.27zm-495.55 64.51c3.42,-3 31.52,-52.19 36.32,-60.32l45.08 -75.74c6.68,-11.09 22.35,-14.35 31.84,-4.81 8.75,8.79 33.93,77.4 39.63,82.66 0.51,-21.16 -0.01,-42.75 0.05,-63.97 0.03,-10.2 2.09,-18.36 9.01,-22.38 16.99,-9.9 30.52,11.53 39.24,22.29l35.95 44.33c2.15,2.57 5.24,5.99 7.3,8.73 1.15,-10.38 -1.31,-65.64 1.44,-70.9 2.65,-5.07 9.43,-8.7 16.17,-4.88 6.46,3.66 5.65,10.1 5.64,18.07l0 73.14c0,15.94 -0.36,30.61 -16.51,32.11 -16.2,1.5 -23.58,-10.91 -29.96,-18.89 -10.6,-13.26 -22.83,-25.85 -33.05,-39.28 -2.07,-2.72 -9.2,-11.53 -12.12,-13.41 0,12.89 -0,25.79 0,38.68 0,14.59 -0.4,20.87 -9.77,28.02 -7.93,6.05 -21.36,6.06 -30.83,1.84 -10.64,-4.74 -11.43,-11.9 -17.07,-21.7l-58.82 0c-4.79,5.4 -13.96,22.61 -18.37,29.91 -5.84,9.66 -13.14,20.12 -18,30.3 10.04,8.76 55.4,22.85 69.97,26.83 85.26,23.27 180.49,25.95 268.59,18.64 97.74,-8.12 204.51,-29.32 292.25,-73.5 5.49,-2.76 11.03,-6.43 16.12,-8.5 -4.8,-4.76 -12.05,-8.49 -21.42,-19.97 -3.18,-3.89 -6.49,-7.11 -9.7,-11 -3.49,-4.22 -7.28,-6.85 -9.95,-11.52 -3.52,1.89 -6.39,6.7 -8.93,9.97 -7.06,9.07 -17.38,25.52 -26.9,30.35 -8.66,4.39 -23.79,4.69 -32.71,0.42 -10.59,-5.06 -10.16,-11.41 -16.2,-21.91l-58.42 -0.01c-4.78,7.29 -10.48,15.65 -17.04,20.34 -7.72,5.53 -22.51,6.34 -30.69,0.71 -8.27,-5.69 -8.12,-17.28 -8.12,-30.01 0,-12.31 0.57,-26.05 -0.13,-38.19 -5.67,6.5 -10.45,14.64 -15.65,21.65 -8.84,11.92 -19.23,23.62 -33.12,8.95 -3.23,-3.41 -5.64,-6.69 -8.75,-10.31 -5.31,-6.2 -10.42,-13.67 -16.49,-19.41 -1.07,-1.01 -0.2,-0.36 -1.52,-1.2 -0.02,8.88 1.13,57.02 -0.42,63.51 -1.22,5.11 -5.99,9.66 -12.97,8.61 -13.33,-2.01 -9.67,-21.63 -9.67,-33.61 0,-14.31 0,-28.62 0,-42.93 0,-10.73 -1.56,-31.97 2.81,-40.19 5.61,-10.55 20.32,-9.68 29.05,-2.69 1.92,1.54 3.5,3.62 5.18,5.14 5.68,5.14 9.91,11.92 14.71,17.89 6.39,7.96 12.13,16.32 19.09,23.84 1.44,-0.78 0.08,0.24 1.34,-1.04 0.05,-0.05 1.33,-1.64 1.41,-1.77l17.38 -25.56c5.66,-8.05 13.05,-22.86 25.14,-23.81 29.33,-2.28 15.97,48.52 19.47,78.09 13.11,-19.48 27.21,-46.99 40.28,-67.95 4.05,-6.49 12.47,-13.32 24.6,-8.92 8.87,3.22 11.46,10.93 15.59,20.2 3.8,8.53 7.87,16.47 11.64,24.94 2.87,6.46 21.48,47.25 23.6,49.41 7.68,-12.29 19.14,-22.74 26.84,-34.86 -1.85,-3.53 -31.5,-35.84 -36.01,-40.1 -2.61,-2.47 -10.76,-10.42 -7.05,-16.65 3.76,-6.32 28.43,-6.96 40.3,1.68 5.56,4.04 8.95,7.49 13.01,12.44 2.43,2.96 10.25,11.97 13.24,13.48 3.1,-6.47 56.08,-70.33 63.84,-82.93 -5.12,-5.26 -36.31,-17.15 -45.87,-20.6 -119.24,-42.96 -301.98,-35.17 -420.09,-9.94 -73.06,15.6 -141,37.52 -196.98,71.65 -39.62,24.15 -91.12,70.54 -65.97,121.28 6.62,13.35 19.31,27.59 32.1,35.29zm650.93 -94.33l29.47 32.59c2.27,2.42 3.53,4.58 5.93,6.81 4.48,4.15 7.95,9.18 12.36,13.23 12.31,-5.88 35.2,-30.4 43.1,-42.91 14.04,-22.23 16.4,-43.82 5,-67.34 -4.61,-9.52 -19.82,-27.47 -27.7,-30.81 -1.53,3.26 -5.55,7.6 -8.11,10.89l-51.55 66.1c-2.83,3.78 -6.4,7.2 -8.51,11.44z"/>
 </g>
</svg>
