<?xml version="1.0" encoding="UTF-8"?>
<!DOCTYPE svg PUBLIC "-//W3C//DTD SVG 1.1//EN" "http://www.w3.org/Graphics/SVG/1.1/DTD/svg11.dtd">
<!-- Creator: CorelDRAW 2020 (64-Bit) -->
<svg xmlns="http://www.w3.org/2000/svg" xml:space="preserve" width="4.19226in" height="0.58502in" version="1.1" style="shape-rendering:geometricPrecision; text-rendering:geometricPrecision; image-rendering:optimizeQuality; fill-rule:evenodd; clip-rule:evenodd"
viewBox="0 0 14466.72 2018.8"
 xmlns:xlink="http://www.w3.org/1999/xlink"
 xmlns:xodm="http://www.corel.com/coreldraw/odm/2003">
 <defs>
  <style type="text/css">
   <![CDATA[
    .fil0 {fill:#373435;fill-opacity:0.200000}
   ]]>
  </style>
 </defs>
 <g id="Layer_x0020_1">
  <metadata id="CorelCorpID_0Corel-Layer"/>
  <g id="_1033060112">
   <path class="fil0" d="M7262.79 1791.27l425.92 -3.57 -0.86 -347.21c670.67,-11.64 1396.59,200.09 1221.56,-713.5 -61.26,-319.74 -302.65,-328.25 -645.26,-327.43 -333.19,0.8 -669.61,4.17 -1002.48,-0.99l1.11 1392.72zm424.83 -696.7c209.89,2.54 596.56,25.24 768.79,-22.77 123.93,-403.81 -114.87,-329.57 -765.05,-322.96l-3.74 345.73z"/>
   <path class="fil0" d="M4332.84 1777.78l426.33 11.68 0.01 -992.71c3.59,4.43 11.28,4.8 13.65,14.07 2.36,9.17 11.97,10.84 15.15,14.02l248.12 300.11c88.59,108.82 180.15,233.17 272.91,349.92 308.36,388.09 162.68,323.47 911.78,313.86l0.68 -1388.56 -430.75 -0.1 4.1 995.4c-77.64,-51.61 -460.73,-565.81 -552.7,-683.67 -239.86,-307.35 -203.58,-373.15 -899.64,-306.04l-9.63 1372z"/>
   <path class="fil0" d="M14011.3 1301.84l11.51 144.65c-158.72,80.21 -643.32,57.03 -839.47,30.17 -70.12,-162.8 76.69,-142.84 -467.94,-143.15 8.94,466.83 178.91,471.02 630.41,471.12 714.05,0.15 1177.26,127.46 1115.38,-537.42 -51.04,-548.53 -822,-234.55 -1303.2,-379.43 -38.2,-243.27 151.33,-191.91 369.51,-191.38 384.36,0.94 389.22,-35.83 470.07,146.52l399.68 -1.28c76.14,-424.74 -257.37,-455.05 -610.07,-455.43 -270.03,-0.29 -798.78,-57.39 -973.95,115.96 -97.97,96.96 -106.12,290.93 -86.95,453.88 60.66,515.79 945.13,143.28 1285.02,345.79z"/>
   <path class="fil0" d="M2121.87 1780.05l464.01 9.43 126.51 -241.9 858.78 -3.17 148.09 247.43 457.97 -1.74c-42.62,-108.17 -715.22,-1369.55 -787.56,-1389.91l-518.6 1.11 -749.19 1378.74zm765.17 -535.3l524.59 -1.73 -256.2 -499.96c-69.97,54.78 -245.46,418.41 -268.39,501.69z"/>
   <path class="fil0" d="M12445.58 405.29l-404.18 -3.93c-32.78,153 -8.95,557.55 -10.28,737.81 -2.61,353.1 -115.21,307.57 -448.19,308.09 -329.8,0.52 -445.62,41.02 -448.72,-308.09 -1.67,-188.33 23.07,-573 -9.63,-734.85l-403.84 -2.35c-25.11,138.39 -19.58,970.89 16.4,1089.68 106.69,352.35 472.12,312.64 845.79,312.64 350.26,0 733.95,23.83 841.7,-291.24 41.67,-121.81 49.97,-958.46 20.95,-1107.77z"/>
   <path class="fil0" d="M1039.58 639.45c338.63,219.29 357.81,-227.2 465.24,-367.84 94.61,29.47 276.31,180.5 180.04,326.25 -62.83,95.13 -249.67,197.25 -261.39,363.1 -10.37,146.66 171.92,249.42 252.14,361.67 111.74,156.37 36.49,364.37 -126.82,397.71 -146.77,-145.06 -98.39,-584.61 -400.08,-492.16 -209.24,64.14 -345.11,403.77 -477.5,460.82 -208.94,90.03 -437.04,-180.69 -94.18,-381.08 183.57,-107.29 500.06,-222.86 313.85,-496.96 -61.6,32.8 -135.67,139.62 -415.62,290.3 -185.56,99.9 -353.9,137.82 -462.06,296.32 14.4,183.56 358.11,562.82 518.13,602.66 321.18,79.94 394.91,-445.17 654.46,-428.34 138.64,112.06 73.16,271.69 129.66,446.89 205.5,-1.45 534.03,-368.76 585.44,-581.14 56.8,-234.7 -102.02,-217.51 -172.42,-377.17 -90.85,-206.04 104.18,-234.17 179.56,-362.96 22.54,-101.77 -304.58,-611.08 -618.54,-688.98 -4.59,7.12 -9.5,9.71 -11.18,22.85l-35.93 160.46c-7.7,66.35 -20.46,125.15 -43.07,182.7 -49.26,125.4 -115.24,172.51 -159.73,264.88z"/>
   <path class="fil0" d="M9149.57 1783.22c183.91,19.03 1251.89,29.49 1381.06,-10.64l-0.82 -330.56 -954.22 -11.03 -0.29 -1025.31 -412.78 -4.63 -12.96 1382.18z"/>
   <polygon class="fil0" points="6528.66,1786.65 6955.6,1790.51 6955.95,398.23 6526.8,400.92 "/>
   <path class="fil0" d="M621.69 930.89c77.79,-69.48 89.33,-100.48 185.46,-148.37l-25.73 -26.21c-2,-1.66 -9.75,-8.4 -12.09,-10.28l-50.15 -41.74c-53.95,-51.37 -57.07,-31.41 -119.76,-84.56 51.76,-77.55 116.47,-149.17 175.26,-223.73 27.28,22.89 32.74,34.97 57.07,56.67 78.32,69.93 7.17,29.85 109.58,71.03 44.22,-90.26 84.49,-100.79 112.68,-196.36 -217.56,-154.58 -402.63,-609.94 -881.29,-72.17 -397.43,446.49 -13.19,452.45 197.93,532.39 47.13,17.85 81.03,31.21 123.66,56.37l127.37 86.96z"/>
  </g>
 </g>
</svg>
