<?xml version="1.0" encoding="UTF-8"?>
<!DOCTYPE svg PUBLIC "-//W3C//DTD SVG 1.1//EN" "http://www.w3.org/Graphics/SVG/1.1/DTD/svg11.dtd">
<!-- Creator: CorelDRAW 2020 (64-Bit) -->
<svg xmlns="http://www.w3.org/2000/svg" xml:space="preserve" width="1.6343in" height="0.671205in" version="1.1" style="shape-rendering:geometricPrecision; text-rendering:geometricPrecision; image-rendering:optimizeQuality; fill-rule:evenodd; clip-rule:evenodd"
viewBox="0 0 367.75 151.04"
 xmlns:xlink="http://www.w3.org/1999/xlink"
 xmlns:xodm="http://www.corel.com/coreldraw/odm/2003">
 <defs>
  <style type="text/css">
   <![CDATA[
    .fil0 {fill:#373435;fill-opacity:0.200000}
   ]]>
  </style>
 </defs>
 <g id="Layer_x0020_1">
  <metadata id="CorelCorpID_0Corel-Layer"/>
  <path class="fil0" d="M182.41 1.94l-64.63 0.04 -0.07 147.64 67.17 0.04c7.67,1.15 22.13,-6.03 27.72,-13.31 7.44,-9.69 8.55,-17.64 9.22,-32.46 2.73,3.54 3.74,10.28 12.41,20.14 3.22,3.66 4.35,5.14 8.14,8.36 3.14,2.67 5.87,4.82 9.74,7.22 48.32,29.95 113.16,-1.91 115.58,-61.66 0.85,-20.88 -7.28,-37.78 -16.66,-49.84 -8.22,-10.55 -22.42,-21.41 -40.5,-25.95 -19.42,-4.88 -40.51,-1.15 -55.39,7.4 -10.41,5.98 -19.03,13.83 -25.79,23.7 -3.31,4.83 -3.71,6.77 -5.44,9.62l-0.94 1.24c0.19,-19.97 -6.09,-31.88 -23.5,-38.63 -3.98,-1.54 -12.67,-4.42 -17.06,-3.56zm-140.69 93.08l25.61 0.12 0.01 54.93c2.65,0.9 39.41,0.85 41.5,-0.07l0.15 -148.42c-2.18,-0.76 -38.9,-0.81 -41.41,-0.07l-0.25 55.81 -25.62 -0.27c0.23,-6.09 0.45,-52.84 -0.21,-55.55l-40.89 -0.1c-0.63,2.56 -0.94,144.27 -0.06,148.69l41.01 0.12 0.17 -55.19zm158.81 -20.47c2.74,2.39 6.3,1.23 13.37,8.21 1.35,1.33 2.28,3.01 3.37,3.86 -1.04,-12.91 -1.01,-9.54 -0.05,-22.49 -1.05,0.73 0.03,-0.01 -0.78,0.79 -2.59,2.57 -2.39,3.27 -6.31,5.89 -1.69,1.13 -2.65,1.55 -4.56,2.26 -1.51,0.57 -3.88,0.91 -5.04,1.47zm-46.47 -14.46c6.65,0.07 13.97,0.26 20.52,0.02 12.57,-0.47 14.11,-21.91 0.48,-22.4 -6.7,-0.24 -14.14,-0.07 -20.9,0.01l-0.11 22.37zm0.01 54.66c6.77,0.05 13.86,0.2 20.51,0.02 12.7,-0.33 14.06,-21.83 0.49,-22.38 -6.66,-0.27 -14.28,-0.07 -21,0.03l0.01 22.33zm133.57 -76.73c-19.6,2.58 -35.86,19.67 -33.02,42.36 2.38,19.08 20.12,35.48 42.31,32.59 19.07,-2.48 35.42,-19.98 32.69,-42.06 -2.34,-18.89 -19.82,-35.8 -41.97,-32.89z"/>
 </g>
</svg>
