<?xml version="1.0" encoding="UTF-8"?>
<!DOCTYPE svg PUBLIC "-//W3C//DTD SVG 1.1//EN" "http://www.w3.org/Graphics/SVG/1.1/DTD/svg11.dtd">
<!-- Creator: CorelDRAW 2020 (64-Bit) -->
<svg xmlns="http://www.w3.org/2000/svg" xml:space="preserve" width="1.32883in" height="0.620335in" version="1.1" style="shape-rendering:geometricPrecision; text-rendering:geometricPrecision; image-rendering:optimizeQuality; fill-rule:evenodd; clip-rule:evenodd"
viewBox="0 0 586.82 273.94"
 xmlns:xlink="http://www.w3.org/1999/xlink"
 xmlns:xodm="http://www.corel.com/coreldraw/odm/2003">
 <defs>
  <style type="text/css">
   <![CDATA[
    .fil0 {fill:#373435;fill-opacity:0.200000}
   ]]>
  </style>
 </defs>
 <g id="Layer_x0020_1">
  <metadata id="CorelCorpID_0Corel-Layer"/>
  <path class="fil0" d="M554.2 0.06l0 208.07c0,10.36 1.18,17.94 -4.44,25.22 -3.74,4.85 -12.03,9.66 -21.3,7.23 -4.21,-1.1 -7.05,-3.03 -9.42,-5.33 -3.77,-3.64 -13.86,-22.63 -16.86,-27.9l-21.64 -37.87c-17.87,-31.45 -36.35,-63 -54.01,-94.49 -3.52,-6.27 -7.15,-12.72 -10.82,-18.94 -1.64,-2.77 -3.76,-7.33 -5.85,-8.9 -3.56,-2.66 -8.19,-1.47 -10.53,1.43 -2.42,3 -1.62,8.75 -1.62,13.07l0 148.76c0,4.3 0.38,10.58 -0.5,14.58 -3.9,17.68 -26.08,21.17 -35.97,8.85 -3.23,-4.02 -40.51,-70.28 -43.55,-75.45 -7.32,-12.47 -14.37,-25.15 -21.55,-37.7 -7.2,-12.59 -14.58,-25.16 -21.64,-37.87 -3.6,-6.48 -7.23,-12.47 -10.81,-18.95 -1.75,-3.17 -3.59,-6.29 -5.36,-9.39 -1.86,-3.27 -3.32,-6.94 -6.72,-8.28 -4.37,-1.72 -8.39,0.94 -9.7,3.9 -1.18,2.67 -0.69,10.86 -0.69,14.34l0 148.76c0,11.86 -0.18,16.36 -6.96,22.76 -6.51,6.15 -14.11,5.27 -24.54,5.27 -19.83,0 -39.67,0 -59.5,0 -21.06,0 -33.62,-0.26 -51.9,-7.42 -7.04,-2.75 -13.93,-6.46 -19.5,-10.25 -1.62,-1.1 -2.83,-1.98 -4.32,-3.06 -3.59,-2.6 -8.99,-7.3 -11.95,-10.43 -1.11,-1.18 -2.53,-2.5 -3.58,-3.8 -1.11,-1.38 -2.21,-2.59 -3.35,-4.02 -2.24,-2.8 -4.27,-5.46 -6.31,-8.69 -3.92,-6.23 -7.01,-12.13 -10,-19.75 -5.97,-15.24 -8.26,-34.3 -5.65,-51.94 5.11,-34.51 25.71,-59.2 46.55,-72.51 11.86,-7.57 26.54,-13.89 43.57,-15.94 11.42,-1.37 45.2,-0.83 58.76,-0.83l-0.01 -32.6c-8.91,0 -17.82,0 -26.73,0 -27.99,0 -43.24,-0.64 -70.22,10 -15.48,6.1 -26.19,13.62 -37.37,22.64 -1.13,0.91 -2.59,2.09 -3.53,3.08 -1.06,1.12 -2.28,2.11 -3.44,3.18l-9.75 10.59c-1.01,1.27 -1.95,2.36 -2.94,3.67 -0.95,1.25 -1.96,2.53 -2.93,3.94 -8.61,12.61 -12.91,20.6 -18.2,35.2 -4.84,13.38 -7.7,30.61 -7.45,46.14 0.26,16.88 3.17,30.56 8.19,45.15 2.07,6 5.36,13.39 8.25,18.45 4.65,8.12 7.9,13.37 13.37,20.2 24.94,31.17 61.78,49.93 102.35,51.52 8.74,0.34 17.91,0.09 26.7,0.09l53.65 0c9.37,0 15.72,0.12 24.29,-2.53 13.61,-4.21 24.02,-13.96 29.74,-23.91 8.75,-15.21 7.27,-26.99 7.27,-46.14 0,-17.87 -0.21,-35.88 0.01,-53.73 0.9,1.07 1.62,2.67 2.4,4.01 11.66,19.91 23.32,40.91 34.88,60.98 6.23,10.82 12.48,21.52 18.59,32.52 2.94,5.3 4.37,6.99 7.83,11.24 3.92,4.8 12.19,10.63 18.76,13.28 21.97,8.85 45.66,3.29 60.69,-13.87 15.48,-17.67 13.32,-34.26 13.32,-57.23l0 -38.14c0,-4.07 -0.22,-8.83 0.04,-12.82l12.53 21.75c4.14,7.43 8.36,14.84 12.67,22.17 10.69,18.22 20.95,37.08 31.63,55.34 11.87,20.28 34.63,31.14 58.61,25.59 10.06,-2.32 18.18,-7.24 25.17,-14 5.27,-5.09 9.28,-11.16 12.08,-18.18 4.22,-10.56 3.76,-19.01 3.76,-31.04l0 -209.08 -32.6 -0.01zm-371.65 45.58c-12.01,0 -46.75,-0.5 -56.31,0.64 -64.48,7.69 -101.09,78.8 -68.68,135.78 4.99,8.76 6.75,10.05 12.01,16.46 7.81,9.52 22.79,18.91 33.72,23.25 18.47,7.34 30.97,6.45 50.51,6.45 19.07,0 38.14,0 57.21,0 3.62,0 10.49,0.59 13.26,-0.98 3.7,-2.09 3.92,-4.83 3.92,-10.21l0 -142.4c0,-6.72 -0.77,-22.37 1.05,-27.79 5.1,-15.16 24.52,-19.37 35.43,-6.81 1.98,2.27 8.67,14.33 10.62,17.86 3.38,6.11 6.97,12.09 10.35,18.13 3.44,6.13 6.86,12.09 10.36,18.12l51.89 90.77c7.01,12.12 13.71,24.09 20.72,36.23 1.81,3.14 3.08,6.35 7.26,6.94 4.43,0.63 7.56,-2.21 8.52,-5.5 0.87,-3.01 0.29,-23.4 0.29,-28.18l0 -128.42c0,-4.53 -0.24,-9.75 0.06,-14.2 0.56,-8.29 5.92,-14.27 11.45,-17.01 7.99,-3.97 15.97,-2.1 21.94,2.33 4.43,3.29 8.52,11.89 11.48,17 13.89,24 27.59,48.93 41.52,72.65l20.72 36.24c6.76,12.11 13.85,24.22 20.71,36.25 3.45,6.06 6.83,12.1 10.36,18.12 1.2,2.06 4.19,7.8 5.4,8.83 2.92,2.49 7.54,2.63 10.41,-0.07 3.07,-2.88 2.43,-6.91 2.43,-11.91l0 -214.18 -32.6 -0.05 0 126.26c-0.78,-0.76 -8.15,-13.98 -9.38,-16.11 -3.13,-5.41 -6.16,-10.76 -9.25,-16.18l-37.17 -65.05c-3.79,-6.56 -4.59,-7.8 -9.34,-12.78 -0.6,-0.63 -1.09,-1.05 -1.64,-1.67 -3.22,-3.56 -11.1,-8.28 -15.52,-10.16 -20.13,-8.53 -42.05,-3.99 -57.69,10.44 -4.33,4 -8.15,9.51 -10.87,14.82 -7.21,14.07 -5.62,28.61 -5.62,45.54 0,17.05 0,34.11 0,51.16 -0.86,-0.88 -3.78,-6.33 -4.71,-8 -10.45,-18.8 -21.84,-37.88 -32.47,-56.78 -6.11,-10.86 -12.48,-21.69 -18.58,-32.53 -2.62,-4.65 -6.92,-11.01 -10.93,-14.49 -4.37,-3.8 -8.89,-7.31 -15.55,-10.13 -26.21,-11.1 -55.82,-0.01 -68.62,25.11 -7.18,14.07 -5.62,28.42 -5.62,45.41l0 101.97c0,6.61 2.16,17.77 -6.82,18.71 -2.56,0.27 -47.32,0.07 -51,0.06 -20.4,-0.08 -39.6,-9.91 -50.05,-26.7 -11.59,-18.62 -12.96,-39.36 -2.38,-60.01 8.22,-16.04 26.52,-28.79 46.33,-30.42 7.93,-0.65 17.09,-0.25 25.17,-0.25 8.57,0 17.14,0 25.71,0l0 -32.6z"/>
 </g>
</svg>
