<?xml version="1.0" encoding="UTF-8"?>
<!DOCTYPE svg PUBLIC "-//W3C//DTD SVG 1.1//EN" "http://www.w3.org/Graphics/SVG/1.1/DTD/svg11.dtd">
<!-- Creator: CorelDRAW 2020 (64-Bit) -->
<svg xmlns="http://www.w3.org/2000/svg" xml:space="preserve" width="3.55398in" height="0.525827in" version="1.1" style="shape-rendering:geometricPrecision; text-rendering:geometricPrecision; image-rendering:optimizeQuality; fill-rule:evenodd; clip-rule:evenodd"
viewBox="0 0 24389.35 3608.51"
 xmlns:xlink="http://www.w3.org/1999/xlink"
 xmlns:xodm="http://www.corel.com/coreldraw/odm/2003">
 <defs>
  <style type="text/css">
   <![CDATA[
    .fil0 {fill:#373435;fill-opacity:0.200000}
   ]]>
  </style>
 </defs>
 <g id="Layer_x0020_1">
  <metadata id="CorelCorpID_0Corel-Layer"/>
  <path class="fil0" d="M2727.51 3138.72c90,-650.75 183.94,-1300.61 276.34,-1951.53 55.09,-388.14 146.09,-702.44 -130.85,-996.18l-78.24 -63.9c-53.95,-36.72 -114.83,-69.68 -187.69,-91.97 -262.45,-80.24 -541.41,5.81 -710.68,206.31 -122.15,144.65 -180.53,321.67 -149.57,531.36 18.72,126.63 95.81,284.82 147.19,407.02l664.48 1567.01c27.72,64.44 57.17,131.96 83.43,196.07 13.59,33.18 27.15,64.6 40.72,96.59l44.88 99.21zm745.23 468.06c689.44,3.81 1380.05,0.08 2069.62,0.08 175.4,0 286.17,-11.1 417.75,-96.08 52.04,-33.58 67.19,-50.6 103.83,-87.59 14.4,-14.54 22.29,-17.1 34.85,-33.72 130.04,-172 198.99,-362.15 150.6,-596.45 -81.95,-396.76 -533.2,-675.74 -946,-458.84 -145.76,76.57 -1012.14,703.79 -1223.91,845.58 -147.38,98.67 -305.36,215.93 -456.25,318.62l-150.49 108.4zm-660.4 -2.19l-1223.29 -854.55c-102.34,-70.27 -204.04,-146.14 -306,-213.85 -96.21,-63.87 -210.55,-156.97 -312.95,-206.93 -184.07,-89.73 -436.58,-114.23 -627.79,1.92 -85.21,51.79 -121.36,85.92 -180.4,148.11l-78.65 117.69c-110.18,195.72 -106.91,434.58 -14.4,628.73 14.7,30.83 29.02,54.55 46.36,81.08 8.89,13.59 15.67,23.15 26.67,37.2 11.43,14.54 21.15,22.56 32.23,36.34 30.85,38.39 89.73,89.05 140.06,119.96 129.58,79.62 238.7,105.8 417.1,105.77 49.06,-0.03 2027.64,6.19 2081.05,-1.49zm755.82 -229.81c19.67,-16.08 59.03,-39.85 81.84,-55.58l173.7 -120.53c28.23,-19.83 57.47,-40.2 86.94,-60.14l522.8 -360.04c31.83,-22.8 55.98,-38.45 86.84,-60.28 28.99,-20.53 57.25,-40.07 86.92,-60.17 74.87,-50.74 814.4,-556.46 869.06,-602.28 181.1,-151.84 298.87,-344.48 265.8,-614.49 -9.86,-80.49 -35.69,-157.95 -69.03,-224.79 -25.64,-51.42 -83.3,-136.58 -123.15,-171.29l-76.06 -66.09c-26.1,-20.99 -57.6,-37.77 -92.32,-55.04 -228.79,-113.91 -479.84,-99.24 -685.09,52.63 -115.15,85.19 -187.1,208.09 -247.46,340.97 -62.47,137.44 -117.39,274.69 -177.26,411.59 -118.26,270.29 -236.57,549.92 -353.37,823.5 -59.01,138.17 -117.58,272.88 -176.59,411.97 -21.34,50.28 -170.48,387.65 -173.56,410.05zm-851.58 5.27c-2.81,-19.86 -31.61,-77.3 -41.88,-102.02l-493.29 -1129.97c-61.33,-142.22 -121.82,-272.29 -180.72,-412.72 -48.42,-115.53 -213.98,-510.45 -278.69,-604.15 -215.85,-312.54 -625.11,-375.6 -924.77,-159.62 -59.47,42.88 -111.34,88.86 -150.44,148.79 -165.97,254.29 -175.24,536.71 -3.22,785.17 22.99,33.18 43.01,54.01 67.65,79.54 13.1,13.56 24.86,23.13 37.2,36.28 34.42,36.61 164.84,121.9 212.66,155.22 168.48,117.37 361.82,243.08 526.28,361.34 165.11,118.69 359.96,242.35 526.17,361.53 26.32,18.89 59.12,40.88 87.19,59.98l265.1 181.21c102.24,64.63 251.16,177.86 350.75,239.43zm19490.36 226.19c520.53,0 953.38,-45.63 1430.16,-245.46 86.4,-36.2 183.26,-90.62 254.91,-137.44 75.14,-49.12 161.3,-114.07 223.52,-173.72 84.38,-80.92 282.8,-312.03 272.66,-519.55l-1242.34 0.03c-35.26,157.41 -149.22,274.96 -259.24,335.16 -150.68,82.49 -314.95,111.69 -508.04,111.69 -286.69,0 -509.48,-111.12 -639.19,-255.02 -273.88,-303.84 -335.67,-814.8 -107.67,-1180.14 171.37,-274.58 436.66,-382.25 766.5,-382.25 176.43,0 334.4,27.67 477.92,92.21 89.65,40.31 178.75,114.83 228.79,197.77 8.62,14.27 16.94,31.34 24.48,49.06 3.86,9.11 5.81,15.7 8.83,25.23 6.21,19.45 0.38,17.21 15.21,24.4l1235.88 0c-16.37,-416.94 -395.89,-700.65 -719.65,-835.18 -448.12,-186.18 -920.88,-230.49 -1433.32,-230.49 -656.89,0 -1295.24,182.53 -1716.5,599.63 -230.35,228.03 -444.66,587.26 -446.52,946.52 -1.95,382.06 182.64,721.67 417.53,970.64 409.21,433.72 1120.13,606.9 1716.07,606.9zm-13050.17 0c524.82,0 974.89,-51.06 1425.71,-245.11 126.09,-54.28 265.23,-135.09 369.63,-218.82 20.02,-16.08 33.99,-25.48 53.71,-44.34 94,-89.81 157.43,-142.6 232.14,-268.23 42.9,-72.22 104.21,-196.53 96.13,-299.68l-1241.9 0.03c-15.59,37.45 -19.4,70.14 -40.15,109.42 -18.26,34.58 -36.12,63.49 -57.14,90 -150.68,189.69 -422.67,247.43 -671.37,247.43 -551.87,0 -869.65,-400.38 -885.65,-904.1 -4.05,-127.17 23.75,-273.58 67.25,-382.17 61.47,-153.54 156.33,-292.77 287.25,-379.44 171.1,-113.23 332.35,-151.71 550.76,-151.71 259.07,0 649.54,77.81 740.37,363.96 5.97,18.8 0.3,17.1 14.86,24.72l1237.23 0c-5.94,-195.07 -118.58,-411.81 -249.16,-527.17 -17.67,-15.59 -27.59,-30.64 -46.77,-46.34 -70.98,-58.06 -81.97,-69.79 -167.56,-126.77 -409.92,-272.96 -1075.12,-365.39 -1587.84,-365.39l-102.99 0c-549.08,0 -1083.63,133.55 -1462.21,392.87l-132.14 98.45c-118.64,97.51 -132.82,116.18 -232.22,228.68 -169.05,191.31 -333.99,543.28 -335.13,826.13 -1.32,328.51 132.66,613.33 309.41,846.9 161.59,213.58 415.53,392.97 657.34,499.99 111.91,49.5 218.93,88 343.8,122.44 247.54,68.3 557.24,108.23 826.64,108.23zm2502.29 -77.49l1117.49 1.43 -0.03 -1910 89.75 117.28c130.63,175.67 1320.23,1769.7 1330.68,1792.1l1657.55 0.59 -0.03 -2994.69 -1116.03 -1.46 -1.11 1887.55c-21.51,-18.8 -570.78,-743.67 -633.24,-823.34l-814.94 -1063.4 -1629.15 -0.78 -0.95 2994.71zm4567.64 1.43c504.15,0 1008.33,0 1512.49,0 250.81,0 504.86,3.97 755.26,-0.32 576.67,-9.89 1392.64,-93.45 1467.75,-802.54 12.91,-121.9 3.24,-230.08 -39.85,-331.27 -71.22,-167.08 -234.06,-292.77 -392.19,-363.31 -45.69,-20.37 -88.97,-36.93 -137.82,-53.77 -37.61,-12.97 -123.66,-29.69 -149.35,-42.55 155.89,-7.84 305.14,-104.56 411.94,-203.8 19.45,-18.05 24.13,-29.23 40.99,-47.31 106.15,-113.77 192.99,-328.13 154.41,-536.28 -20.02,-107.88 -70.54,-171.21 -121.77,-231.81 -158.7,-187.67 -495.43,-278.72 -731.86,-328.02 -207.42,-43.28 -432.53,-55.17 -649.37,-55.17l-2118.93 0 -1.68 2996.15zm1171.14 -1965.06c231.49,0 462.95,0 694.44,0 99.91,0 233.89,10.54 321.38,-24.37 73.97,-29.5 152.41,-97.53 152.81,-198.64 0.41,-101.86 -75.65,-166.27 -148.41,-198.34 -86.24,-38.01 -220.03,-26.48 -320.86,-26.48 -233.87,0 -467.73,0 -701.6,0 -3.22,52.79 -5.94,417.86 2.24,447.82zm-11.43 1253.03c259.67,0 519.55,0 779.44,0 126.5,0 236.62,3.65 345.48,-46.79 203.71,-94.4 231.81,-340.61 5.35,-455.71 -103.56,-52.63 -220.79,-47.15 -345.91,-47.15 -261.53,0 -523.04,0 -784.54,0l0.19 549.65zm-14181.27 -2091.48c83.59,0 243,-21.99 280.93,41.63 -21.8,38.42 -146.63,49.01 -201.85,159.59 -50.44,101.05 -32.15,200.99 -15.78,314.7 30.1,209.04 62.52,420.72 93.81,631l140.98 947.68c14.48,96.26 26.13,226.54 48.39,315.54 18.72,-28.64 41.9,-97.08 57.9,-132.85 97.24,-217.09 188.34,-461.28 284.34,-676.88 76.14,-170.97 152.27,-367.17 227.57,-542.25 39.64,-92.13 76.24,-183.18 114.53,-272.85 77.68,-181.88 153.25,-361.12 229.49,-545.38 110.77,-267.67 87.05,-509.15 -97.29,-730.62 -205.12,-246.43 -549.35,-307.25 -834.47,-147.41 -123.85,69.44 -221.06,176.02 -275.45,308.25 -29.45,71.62 -72.76,245.4 -53.09,329.83z"/>
 </g>
</svg>
