<?xml version="1.0" encoding="UTF-8"?>
<!DOCTYPE svg PUBLIC "-//W3C//DTD SVG 1.1//EN" "http://www.w3.org/Graphics/SVG/1.1/DTD/svg11.dtd">
<!-- Creator: CorelDRAW 2020 (64-Bit) -->
<svg xmlns="http://www.w3.org/2000/svg" xml:space="preserve" width="2.56976in" height="0.875528in" version="1.1" style="shape-rendering:geometricPrecision; text-rendering:geometricPrecision; image-rendering:optimizeQuality; fill-rule:evenodd; clip-rule:evenodd"
viewBox="0 0 915.71 311.99"
 xmlns:xlink="http://www.w3.org/1999/xlink"
 xmlns:xodm="http://www.corel.com/coreldraw/odm/2003">
 <defs>
  <style type="text/css">
   <![CDATA[
    .fil0 {fill:#373435;fill-opacity:0.200000}
   ]]>
  </style>
 </defs>
 <g id="Layer_x0020_1">
  <metadata id="CorelCorpID_0Corel-Layer"/>
  <path class="fil0" d="M119.37 6.86c4.75,21.19 11.97,33.91 14.63,59.06 1.54,14.52 5.76,54.44 -6.53,62.17 -33.18,20.88 -24.89,-92.89 -24.37,-111.79l-34.88 -0.03c1.16,21.47 11.67,127.91 -22.71,112.23 -18.23,-8.92 -7.97,-71.5 -2.91,-91.51 2.45,-9.68 7.35,-20.82 9.04,-29.18l-34.41 -7.78c-4.81,20.4 -12.58,30.13 -15.34,56.06 -3.7,34.74 -6.05,94.76 34.54,107.08 26.85,8.15 37.86,-7.05 49.13,-20.57 11.6,10.06 19.07,28.62 47.53,21.05 18.94,-5.04 29.34,-19.44 34.5,-39.7 4.84,-19.02 4.04,-47.33 1.53,-67.53 -1.72,-13.9 -10.07,-47.31 -17.42,-55.87l-32.33 6.3zm128.28 195.25c1.79,6.52 30.2,79.92 2.27,80.19 -3.85,-4 -1.6,-2.58 -3.05,-4.73 -3,-4.42 4.21,-6.41 -18.99,-5.91l-7.9 0.34c1.6,49.05 67.09,55.45 67.09,-9.61 0,-23.84 -5.18,-53.82 -17.1,-70.4 -9.81,1.84 -13.11,6.85 -22.32,10.13zm65.04 -134.92l-4.63 -12.28 -21.64 0.6 3.59 98.5 22.07 -0.12 4.3 -9.82c6.15,6.74 17.2,13.92 29.77,15.05l6.55 -20.88c-15.91,-10.81 -27.46,-12.21 -38.93,-26.21 1.51,-18.47 21.91,-34.21 26.56,-46.1 -5.18,-5.83 -8.24,-10.75 -14.22,-15.86 -6.06,3.92 -10.66,9.11 -13.41,17.11zm464.31 0.54l-1.26 -13.1 -22.43 0.74 4.29 98.04 19.51 0.23c3.6,-0.72 1.19,-0.16 5.03,-6.9l1.77 -3.26c5.11,8.14 18.48,14.08 29.28,15.85l6.97 -21.07c-15.03,-11.14 -25.51,-12.08 -38.92,-26.22 0.71,-14.9 20.52,-37.43 27,-45.48 -2.61,-3.55 -3.62,-5.09 -6.84,-8.85l-8.26 -8.05c-8.42,6.44 -9.16,11.87 -16.15,18.06zm-336.78 -16.24l-23.19 4.63c3.41,15.07 20.09,80.09 -14.65,79.16 -36.92,-0.99 -15.81,-71.83 -15.01,-80.53l-22.37 -5.21c-5.63,22.82 -12.25,46.15 -6.58,70.22 11.78,49.99 72.99,53.53 87.14,3.52 7.32,-25.87 -0.53,-48.63 -5.34,-71.79zm467.47 -0.8l-22.42 4.86c0.49,15.14 7.27,30.58 6.52,48.56 -0.65,15.63 -7.69,32.73 -24.28,30.54 -34.32,-4.53 -13.82,-70.42 -12.77,-80.1l-21.36 -5.27c-16.48,27.87 -17.16,106.09 33.9,109.4 23.92,1.56 40.11,-16 45.45,-35.33 7.33,-26.58 -0.65,-48.54 -5.04,-72.66zm-496.4 253.08l25.6 1.13 -0.07 -27.95c28.58,-7.78 55.08,-21.07 47.17,-58.2 -6.48,-30.44 -47.06,-30.98 -79.28,-31.4 3.17,40.32 5.18,75.65 6.58,116.43zm24.38 -54.59c12.78,0.06 24.66,-9.83 22.62,-24.88 -6.37,-8.53 -11.74,-10.31 -25.77,-10.28l3.15 35.17zm177.63 -56.59c-7.36,37.21 -4.51,78.73 1.84,115.33l24.76 -7.33c-0.91,-8.2 -18.23,-97.03 22.82,-84.18 10.94,27.44 -8.85,62.52 -11.86,86.06l21.82 9.51c6.13,-7.96 11.47,-28.16 13.75,-38.18 22.36,-98.4 -36.72,-92.22 -48.4,-76.17l-3.25 -8.77 -21.49 3.72zm46.76 -34.29l22.24 -4.93 -2 -13.63c10.87,-4.56 22.89,-13.81 37.77,-14.7l-6.46 29.62 23.9 5.12c3.42,-24.04 13.18,-45.52 5.74,-71.81 -14.51,-51.26 -75.96,-50.69 -87.57,0.88 -5.19,23.07 0.05,49.66 6.39,69.45zm15.78 -43.19c14.41,-5.71 23.88,-11.91 43.29,-15.32 -5.33,-38.5 -48.04,-35.79 -43.29,15.32zm-486.37 43.34l22.7 -4.66 -1.84 -13.05c11.06,-6.54 22.13,-12.61 36.72,-15.68l-5.15 29 21.89 5.95c13.41,-24.98 19.46,-105.91 -34.16,-109.78 -25.59,-1.85 -39.96,16.39 -45.73,35.95 -7.31,24.79 0.46,50.23 5.55,72.27zm16.4 -43c13.47,-6.25 25.52,-12.54 42.88,-14.92 -7.38,-44.09 -49.75,-29.96 -42.88,14.92zm296.46 191.16l25.44 -4.78 -2.4 -15.47c12.42,-5.47 24.75,-14.58 40.83,-15.49l-6.73 31.99 25.23 5.89c5.59,-23.91 13.21,-50.2 7.38,-75.6 -12.71,-55.35 -78.46,-60.61 -95.16,-6.48 -8.72,28.28 -0.11,54.32 5.42,79.94zm17.71 -46.6c7.24,-2.83 14.11,-6.99 22.21,-9.97 8.55,-3.15 16.87,-3.93 24.46,-7.71 -1.9,-38.09 -53.01,-40.23 -46.67,17.68zm-214.6 47.04l25.25 -5.04 -2.33 -14.56c12.11,-7.3 24.46,-14.63 40.61,-16.88l-6.12 31.85 25.3 6.43c4.64,-24.99 14.6,-52.8 6.43,-78.85 -17.38,-55.46 -81.19,-54.75 -95.18,-0.27 -7.27,28.29 0.38,51.86 6.04,77.32zm17.58 -47.35c5.82,-1.06 14.12,-6.64 21.17,-9.26 7.23,-2.69 19.94,-5.18 25.79,-8.1 -2.03,-35.58 -50.46,-43.5 -46.96,17.36zm143.39 -175.72c0,30.15 2.34,60.51 25.74,74.51 33.05,19.78 49.59,-6.25 57.31,-13.75 2.55,-2.48 0.63,-0.94 3.69,-3.06 17.07,34.85 83.77,40.84 83.77,-53.7 0,-34.21 -7.12,-61.06 -18.19,-87.99 -9.08,1.09 -27.16,3.29 -33.46,7.81 11.54,36.34 16.13,47.68 16.13,90.2 0,47.42 -37.75,49.86 -35.13,-40.09l2.46 -42.12 -34.41 0.02c0.56,9.84 12.67,127.85 -22.3,113.01 -14.31,-6.07 -10.61,-46.66 -8.97,-62.75 2.46,-24.3 9.54,-37.63 14.38,-58.27 -7.97,-4.45 -22.5,-6.35 -32.97,-7.61 -12.73,22.65 -18.03,52.7 -18.03,83.78z"/>
 </g>
</svg>
