<?xml version="1.0" encoding="UTF-8"?>
<!DOCTYPE svg PUBLIC "-//W3C//DTD SVG 1.1//EN" "http://www.w3.org/Graphics/SVG/1.1/DTD/svg11.dtd">
<!-- Creator: CorelDRAW 2020 (64-Bit) -->
<svg xmlns="http://www.w3.org/2000/svg" xml:space="preserve" width="2.67191in" height="0.702854in" version="1.1" style="shape-rendering:geometricPrecision; text-rendering:geometricPrecision; image-rendering:optimizeQuality; fill-rule:evenodd; clip-rule:evenodd"
viewBox="0 0 13950.16 3669.64"
 xmlns:xlink="http://www.w3.org/1999/xlink"
 xmlns:xodm="http://www.corel.com/coreldraw/odm/2003">
 <defs>
  <style type="text/css">
   <![CDATA[
    .fil0 {fill:#373435;fill-opacity:0.200000}
   ]]>
  </style>
 </defs>
 <g id="Layer_x0020_1">
  <metadata id="CorelCorpID_0Corel-Layer"/>
  <path class="fil0" d="M1549.56 223.33l-0.12 3282.75 876.13 0.23 0.97 -2114.53c123.83,115.44 272.44,356.94 385.43,512.14l742.95 1051.55c114.6,156.49 294.87,393.72 375.01,551.15l886.41 0.02 0 -3325.5 -867.68 2.34 -0.51 2111.14c-116.82,-91.25 -284.24,-372.32 -388.91,-515.45 -178.05,-243.5 -1085.75,-1573.53 -1171.2,-1597.77l-838.47 41.93zm-1213.75 -194.56c-588.66,192.85 -348.74,1112.72 296.53,925.03 603.38,-175.52 330.41,-1130.4 -296.53,-925.03zm-294.54 3471.75l892.84 6.15 1.36 -2330.91 -896.42 -1.38 2.22 2326.14zm13155.23 -727.29c-16.96,555.69 -881.19,35.5 -1098.81,-26.62l-172.29 603.92c574.36,378.34 1628.35,378.67 1944.47,-185.47 212.58,-379.37 -37.29,-777.11 -281.61,-912.41 -458.43,-253.86 -872.22,-100.91 -805.58,-489.9 353.18,-207.34 674.13,1.07 977.14,162.49l60.97 -610.29c-359.39,-121.24 -501.14,-254.06 -998.33,-201.89 -816.75,85.65 -1117.31,901 -486.36,1287.3 273.53,167.48 642.37,221.28 860.41,372.87zm-5429.26 312.73l-539.66 -259.53c-238.52,164.3 -261.53,309.54 -688.32,254.48 -271.39,-35.03 -423.85,-228.02 -403.77,-531.19l1794.23 -4.21c51.41,-1744.06 -2061.45,-1822.89 -2519.51,-547.1 -388.58,1082.36 640.05,1901.33 1684.41,1612.85 306.36,-84.65 600.32,-289.17 672.61,-525.29zm-1633.66 -1043.64l998.95 14.84c-218.26,-571.52 -782.27,-513.39 -998.95,-14.84zm2854.25 1497.56c568.44,-0.14 476.66,68.72 601.74,-301.53 39.96,-118.32 73.96,-217.19 112.68,-336.49 66.64,-205.35 148.49,-490.33 229.27,-664.99l441.92 1300.23 560.69 2.63 991.96 -2342.61 -876.83 -5.49 -403.05 1414.99c-98.17,-113.9 -425.35,-1210.52 -476.47,-1418.01l-456.31 5.73c-74.88,127.59 -324.26,975.6 -412.75,1239.59 -31.31,93.36 -34.12,107.18 -77.23,170.51l-408.04 -1414.72 -870.44 2.26c30.52,128.02 928.77,2279.36 1042.85,2347.89z"/>
 </g>
</svg>
