<?xml version="1.0" encoding="UTF-8"?>
<!DOCTYPE svg PUBLIC "-//W3C//DTD SVG 1.1//EN" "http://www.w3.org/Graphics/SVG/1.1/DTD/svg11.dtd">
<!-- Creator: CorelDRAW 2020 (64-Bit) -->
<svg xmlns="http://www.w3.org/2000/svg" xml:space="preserve" width="2.67432in" height="0.752236in" version="1.1" style="shape-rendering:geometricPrecision; text-rendering:geometricPrecision; image-rendering:optimizeQuality; fill-rule:evenodd; clip-rule:evenodd"
viewBox="0 0 926.5 260.61"
 xmlns:xlink="http://www.w3.org/1999/xlink"
 xmlns:xodm="http://www.corel.com/coreldraw/odm/2003">
 <defs>
  <style type="text/css">
   <![CDATA[
    .fil0 {fill:#373435;fill-opacity:0.200000}
   ]]>
  </style>
 </defs>
 <g id="Layer_x0020_1">
  <metadata id="CorelCorpID_0Corel-Layer"/>
  <path class="fil0" d="M913.23 259.4l-64.93 -0c0.93,-2.78 -0.38,-1.65 3.3,-3.08l35.56 -12.64c14.05,-5.47 25.66,-10.89 38.87,-16.48l0.13 -59.85c-3.94,1.22 -8.52,4.57 -11.67,6.27 -4.26,2.3 -8.22,4.32 -12.2,6.39 -85.71,44.67 -244.6,80.48 -336.52,56.64 -31.06,-8.05 -59.56,-26.4 -43.95,-59.44 2.26,-4.78 4.48,-7.89 7.09,-11.52 2.12,-2.94 5.52,-8.25 9.28,-8.98 -0.78,6 -26.06,33.58 18.32,53.85 57.27,26.16 172.84,6.07 227.56,-8.85 56.91,-15.52 90.85,-29.09 138.39,-57.29 3.44,-2.04 3.71,-2.32 3.76,-7.32l-0.07 -98.44c0,-14.65 2.71,-31.35 -7.34,-36.22 -8.41,-4.08 -150.56,-1.81 -172.67,-1.81l-697.82 -0.01c-49.76,-0.03 -48.24,-4 -48.24,38.97l0 174.45c0,50.66 -4.24,46.39 40.81,46.39l850.93 0c4.32,0 18.69,0.82 21.38,-1.02zm-693.9 -184.31c0.98,-3.57 -3.94,-18.55 -5.7,-21.58 -1.63,5.14 -2.74,10.26 -4.21,15.43 -1.35,4.75 -4.79,7.69 9.91,6.14zm-75.82 -14.81c4.71,1.18 14.48,1.87 16.5,-3.05 3.28,-10.46 -9.56,-11.42 -16.38,-8.66l-0.12 11.71zm39.36 117.38l25.7 0.13 0.03 -30.97c-2.01,0.65 -24.09,27.69 -25.73,30.84zm-111.83 -16.01l28.88 0.57c0.42,-8.31 1.19,-15.6 5.78,-19.82 4.32,-3.98 14.05,-5.36 19.27,-1.28 4.87,3.81 5.84,13.42 1.96,18.83 -3.59,5 -23.13,16.06 -30.1,20.88 -13.45,9.28 -32.82,28.42 -27.57,47.65l92.8 0.13 0.44 -22.61c8.45,-0.31 39.89,-1.48 45.88,0.21l0.35 22.38 32 0.01c0.81,-7.36 -1.03,-16.57 0.86,-22.53l13.93 -0.58 0.17 -27.57 -14.69 -0.02 -0.02 -63.44c-4.36,-1.3 -25.79,-0.86 -30.99,-0.3 -4.63,6.16 -9.6,11.74 -14.96,18.28l-30.3 37.45c-4.51,5.29 -4.14,3.89 -4.11,12.6 0.02,5.97 0.02,11.94 0.04,17.9l-45.69 0.23c1.37,-2.46 -0.14,-0.7 1.98,-2.39 10.4,-8.34 46.69,-18.05 43.85,-53.79 -2.59,-32.68 -43.85,-37.16 -66.48,-27.36 -14.46,6.26 -25.52,22.92 -23.24,44.6zm12.56 -64.84l5.82 -0.16c1.66,-4.17 0.84,-9.9 0.77,-14.46 -0.15,-9.72 -0.88,-6.68 21.6,-7.11l0.06 -14.22 -14.23 -0.13c-5,0 -6.67,1.5 -7.45,-2.59 -0.52,-2.71 -0.04,-7.6 0.61,-9.45 6.43,-3.24 18.74,0.58 26.73,-1.24l-0.13 -13.68 -40.39 -0.43c-8.64,-0.08 -6.03,-0.17 -6.03,29.41 0,41.01 -3.18,34.04 12.62,34.04zm287.16 -25.02l-17.13 0.06c-3.51,4.58 -3.06,13.19 -13.63,10.24 -5.94,-1.66 -8.06,-9.69 -8.19,-16.52 -0.13,-7.33 1.42,-14.81 7.52,-17.1 10.05,-3.77 10.53,3.94 14.29,8.4l16.64 0.18c2.64,-32.44 -57.49,-37.85 -56.98,8.51 0.49,45.11 58.62,40.39 57.47,6.23zm-187.28 24.7l17.66 0.36c1.99,-2.8 1.35,-4.56 3.09,-7.93l19.67 -0.47c1.44,7.42 -0.74,10.33 20.7,8.2 0.3,-2.96 -19.23,-60.58 -21.25,-63.09l-18.61 -0.12c-2.92,4.27 -9.03,25.37 -11.2,31.61 -1.84,5.3 -10.5,28.46 -10.07,31.45zm196.59 0.1c7.85,1.08 22.5,0.27 31.09,0.27 19.69,-0 17.32,4.23 17.35,-14.27l-29.03 -0.37c-1.02,-3.13 -1.01,-6.26 -0.23,-9.88l24.17 0.11 0.07 -14.55 -24.06 -0.08 -0.65 -9.88 29.67 0.1c0.57,-18.75 2.06,-14.67 -16.35,-14.66 -10.61,0 -21.64,-0.28 -32.19,0.08 -1.31,5.32 -1.33,58.93 0.18,63.14zm-128.62 -0.04c4.32,0.72 12.62,1.27 16.47,-0.8l-0.02 -32.64c2.1,1.86 3.69,5.31 5.39,8.49 2.38,4.45 11.78,24.16 13.99,25.08 2.95,0.24 5.87,0.15 8.85,0.19 4.15,0.06 6.98,0.92 7.99,-1.85l0.08 -61.04c-4.65,-1.03 -12.57,-1.12 -17.13,0.14l-0.16 32.25c-5.34,-3.9 -14.09,-31.11 -19.07,-32.67 -2.09,-0.65 -13.71,-0.27 -16.7,-0.2 -0.81,2.78 -1.4,49.74 -0.61,59 0.17,1.91 -0.13,-0.12 0.22,1.73 0.57,3.06 0.24,1.37 0.71,2.32zm-125.77 0.32l16.6 -0.01 1.29 -6.22c0.04,-2.34 -0.07,-5.13 -0.13,-7.51 -0.19,-7.83 -1.53,-8.07 5.73,-7.83 4.63,5.64 6.51,16.43 11.64,21.46l18.12 0.12c-0.3,-5.79 -9.93,-18.2 -11.2,-24.85 4.68,-4.57 9.12,-5.5 10.11,-15.08 3.09,-29.94 -32.66,-23.7 -52.11,-23.58 -1.09,4.96 -1.13,58.64 -0.05,63.49zm743.14 -53.59c2.07,2.14 6.16,2.76 10.07,4.63 12.12,5.8 18.41,15.87 11.63,29.35l-6.54 9.21c-2.83,3.46 -5.24,5.25 -8.22,7.53 -6.21,4.76 -10.89,8.58 -18.57,12.98 -13.94,7.97 -26.51,14.55 -42.32,20.77 -51.44,20.25 -162.24,46.44 -210.65,20.33 -25.79,-13.91 -1.65,-35.56 -1.18,-39.68 -10.28,1.42 -65.26,58.61 33.6,67.61 66.54,6.06 182.21,-19.11 240.6,-60.08 20.83,-14.62 53.93,-44.26 19.46,-64.58 -5.93,-3.5 -13.28,-5.8 -20.34,-7.51 -1.01,-0.24 -2.78,-0.75 -3.73,-0.9 -3.79,-0.6 -3.24,-0 -3.8,0.33zm-95.17 1.73c-36.25,3.4 -75.49,13.3 -101.79,29.75 -82.98,51.91 56.08,63.43 136.13,15.52 47.14,-28.21 19.61,-50.33 -34.34,-45.27z"/>
 </g>
</svg>
