<?xml version="1.0" encoding="UTF-8"?>
<!DOCTYPE svg PUBLIC "-//W3C//DTD SVG 1.1//EN" "http://www.w3.org/Graphics/SVG/1.1/DTD/svg11.dtd">
<!-- Creator: CorelDRAW 2020 (64-Bit) -->
<svg xmlns="http://www.w3.org/2000/svg" xml:space="preserve" width="3.68371in" height="1.09323in" version="1.1" style="shape-rendering:geometricPrecision; text-rendering:geometricPrecision; image-rendering:optimizeQuality; fill-rule:evenodd; clip-rule:evenodd"
viewBox="0 0 21281.48 6315.79"
 xmlns:xlink="http://www.w3.org/1999/xlink"
 xmlns:xodm="http://www.corel.com/coreldraw/odm/2003">
 <defs>
  <style type="text/css">
   <![CDATA[
    .fil0 {fill:#C9C9C9}
   ]]>
  </style>
 </defs>
 <g id="Layer_x0020_1">
  <metadata id="CorelCorpID_0Corel-Layer"/>
  <path class="fil0" d="M-0 6315.79l21281.48 0 0 -6315.79 -21281.48 0 0 6315.79zm4812.19 -3329.37l103.06 8.17 109.93 -1.36c620.96,0 619.25,-701.43 -212.98,-580.38l0 573.58zm-3658.78 -556.32l755.15 0c40.44,235.61 14.22,1748.56 13.72,2107.63l885.34 0 0 -2097.42 751.92 -11.03c42.24,-153.78 16.97,-569.46 16.97,-754.13l-2423.19 0 0.09 754.95zm14862.77 3449.64l198.77 10.33 0.02 -5574.15c-261.02,0 -198.79,-91.48 -198.79,645.18l0 4918.64zm-9552.67 -1352.34l1120.5 10.76c20.86,-54.59 500.57,-888.85 604.31,-971.86 67.57,149.93 192.42,332.17 284.63,482.15 77.4,125.92 229.31,352.61 281.69,487.51l1110.2 1.89 -842.99 -1477.12c-285.7,-495.25 -563.71,-977.71 -845.81,-1459.4 -92.53,101.9 -732.7,1240.37 -861.26,1457.28l-851.27 1468.79zm7781.51 -715.42c-405.79,276.83 -768.16,-193.88 -1019.42,-284.92 -70.78,134.56 -127.69,160.78 -221.22,277.65l-228.47 284.97c170.47,121.25 211.89,198.24 466.13,325.66 579.79,290.59 1450.17,274.01 1785.67,-261.52 267.59,-427.15 108.02,-936.79 -187.42,-1146.02 -460.26,-325.98 -1060.16,-232.02 -991.9,-584.52 316.09,-191.69 621.05,120.41 842.7,215.37 79.77,-91.84 368.92,-481.33 407.45,-579.15 -85.38,-98.67 -302.89,-229.79 -442.05,-295.05 -525.38,-246.37 -1354.2,-187.67 -1648.91,396.99 -221.08,438.59 2.34,891.64 290,1072.26 486.83,305.67 1022.49,193.15 947.44,578.29zm-4290.65 725.74c197.9,0 720.69,26.45 878.5,-17.13l41.74 -1266.93 489.01 623.3c90.84,113.63 162.49,214.69 250.72,326.25 68.14,86.18 199.52,242.39 243.3,332.73l664.13 1.77 -0.11 -2862.57 -878.61 0 -31.16 1271.64c-178.82,-198.52 -917.21,-1253.7 -1012.33,-1271.64l-645.29 0 0.11 2862.57zm-6041.19 0l878.59 0 20.42 -834.26c224.79,-48.26 182.1,6.85 365.44,374.02 70.58,141.36 166.65,323.95 218.4,460.24l954.1 0 -477.23 -1018.38c311.58,-242.62 456.49,-381.57 456.49,-883.2 0,-801.46 -671.25,-960.99 -1359.14,-960.99l-1057.2 0 0.14 2862.57zm13077.83 -2746.01l2011.28 0c-200.61,363.76 -635.04,721.83 -981.8,1564.25 -313.79,762.29 -432.24,1252.74 -432.24,2177.11 178.46,0 356.89,0 535.35,0 82.38,0 164.76,-0.3 247.15,0.43 40.17,0.36 100.53,2.93 138.58,0.41l128.94 -23.31c101.12,-932.49 61,-1571.83 584.77,-2543.42 181.94,-337.49 410.2,-698.2 632.12,-933.54l367.72 -424.26c21.47,-77.79 14.19,-675.57 -2.18,-768.3l-3212.55 -3.57c-43.01,155.92 -17.13,751.1 -17.13,954.19z"/>
 </g>
</svg>
