<?xml version="1.0" encoding="UTF-8"?>
<!DOCTYPE svg PUBLIC "-//W3C//DTD SVG 1.1//EN" "http://www.w3.org/Graphics/SVG/1.1/DTD/svg11.dtd">
<!-- Creator: CorelDRAW 2020 (64-Bit) -->
<svg xmlns="http://www.w3.org/2000/svg" xml:space="preserve" width="3.01364in" height="0.455177in" version="1.1" style="shape-rendering:geometricPrecision; text-rendering:geometricPrecision; image-rendering:optimizeQuality; fill-rule:evenodd; clip-rule:evenodd"
viewBox="0 0 1172.25 177.06"
 xmlns:xlink="http://www.w3.org/1999/xlink"
 xmlns:xodm="http://www.corel.com/coreldraw/odm/2003">
 <defs>
  <style type="text/css">
   <![CDATA[
    .fil0 {fill:#373435;fill-opacity:0.200000}
   ]]>
  </style>
 </defs>
 <g id="Layer_x0020_1">
  <metadata id="CorelCorpID_0Corel-Layer"/>
  <path class="fil0" d="M833.33 42.43l66.13 0.11 0.01 130.02 41.1 0.22 0.27 -130.25 52.35 0c3.25,2.07 17.69,28.17 20.62,33.3 6.61,11.61 13.09,22.55 19.5,33.67 6.67,11.56 12.88,21.8 19.59,33.55l20.25 34 99.1 -172.67 -44.12 -0.2 -54.65 98.01 -56.45 -98.17 -183.38 0.14 -0.32 38.26zm-521.33 130.35c0,0 65.47,-0.3 65.47,-0.3 0,0 35.56,-56.96 35.56,-56.96 0,0 34.13,56.96 34.13,56.96 0,0 64.74,0.29 64.74,0.29 0,0 -99.5,-172.78 -99.5,-172.78 0,0 -100.39,172.79 -100.39,172.79zm-312 -124.07l45.5 0.27 0.32 123.88 51.42 0 0.11 -124.13 45.4 -0.26 0 -44.29 -142.75 -0.01 0 44.55zm711.15 64.41c-1.89,1.49 -5.47,5.78 -7.25,7.92l-21.15 25.64c4.72,2.44 12.87,13.05 33.08,21.87 38.68,16.88 104.43,11.34 106.61,-44.81 2.16,-55.53 -58.98,-52.01 -74.13,-64.66 -11.01,-9.19 2.6,-22.16 29.57,-8.47 6.75,3.42 12.51,8.51 17.91,10.82l23.97 -34.51c-57.09,-51.73 -143.58,-19.49 -126.43,41.3 9.58,33.97 40.09,34.59 66.19,45.62 25.78,10.9 2.96,33.88 -32.11,11.03l-16.26 -11.76zm-95.05 -32.27c-0.24,-0.16 -0.52,-0.66 -0.6,-0.49l-14.65 -18.6c-4.17,-5.82 -42.59,-57.03 -44.58,-57.59l-39.32 0.01 0 168.48 51.66 0.14 0 -78.96c2.96,1.89 51.91,67.05 58.4,75.56 3.87,5.07 6.22,3.4 18.15,3.4 7.23,-0 15.23,0.32 22.36,-0.12l0.31 -168.4 -51.39 -0.11 -0.36 76.68zm-453.74 91.87l52.41 0.07 0.29 -49.66 10.39 0.14c4.5,8.43 8.37,16.6 12.38,24.7 3.16,6.39 9.1,20.15 12.63,24.83l55.09 -0.01 -28.22 -60c7.05,-5.44 11.42,-7.74 17.63,-16.71 5.43,-7.84 8.05,-13.95 8.97,-25.58 3.98,-50.38 -27.96,-65.24 -72.07,-66.17 -20.31,-0.43 -49.96,-1.69 -69.51,0.05l0.01 168.34zm52.67 -90.9c16.88,0 37.76,1.64 37.56,-17.65 -0.19,-18.86 -21.15,-17.22 -37.29,-17.22l-0.27 34.87z"/>
 </g>
</svg>
