<?xml version="1.0" encoding="UTF-8"?>
<!DOCTYPE svg PUBLIC "-//W3C//DTD SVG 1.1//EN" "http://www.w3.org/Graphics/SVG/1.1/DTD/svg11.dtd">
<!-- Creator: CorelDRAW 2020 (64-Bit) -->
<svg xmlns="http://www.w3.org/2000/svg" xml:space="preserve" width="2.75439in" height="0.809913in" version="1.1" style="shape-rendering:geometricPrecision; text-rendering:geometricPrecision; image-rendering:optimizeQuality; fill-rule:evenodd; clip-rule:evenodd"
viewBox="0 0 1010.01 296.99"
 xmlns:xlink="http://www.w3.org/1999/xlink"
 xmlns:xodm="http://www.corel.com/coreldraw/odm/2003">
 <defs>
  <style type="text/css">
   <![CDATA[
    .fil0 {fill:black;fill-opacity:0.200000}
   ]]>
  </style>
 </defs>
 <g id="Layer_x0020_1">
  <metadata id="CorelCorpID_0Corel-Layer"/>
  <path class="fil0" d="M-0 296.88l207.42 0.11 0.1 -296.81 -207.43 -0.17 -0.09 296.88zm906.97 -30.22l17.71 0.09 0.1 -103.37 -17.51 -0.18 -0.29 103.45zm-406.67 -132.91l17.69 0.11 0.15 -103.34 -17.72 -0.31 -0.11 103.54zm297.33 -0.02l52.7 0.13c0.78,-17.29 1.53,-14.1 -9.68,-14.09 -8.39,0.01 -16.8,0.04 -25.19,-0.02l-0.16 -89.43 -17.61 -0.08 -0.06 103.49zm-375.1 -89.45l26.93 0.09 0.04 89.25 17.98 0.24c0.95,-14.78 -1.15,-84.12 0.66,-89.58l26.66 0.04 -0 -14.15 -72.24 0.02 -0.03 14.08zm586.66 217.31l-4.66 -12.88c-7.13,2 -20.5,10.47 -35.27,-0.95 -23.42,-18.12 -17.82,-70.77 16.31,-71.26 8.99,-0.13 12.43,3.4 19.11,5.54l5.35 -12.52c-25.1,-19.44 -73.46,-3.1 -73.82,43.87 -0.37,49.45 44.15,66.05 72.98,48.21zm-659.62 5.03l52.63 0.18 0.06 -14.26 -34.67 0.07 -0.01 -32.96 28.46 -0.16 0.41 -13.88 -28.8 -0.25c-0.22,-5.06 -0.83,-24.63 0.53,-28.23l28.73 0.03 -0.02 -13.88 -47.25 -0 -0.08 103.33zm230.77 -4.31l0.09 -42.92 -17.91 -0.11 -0.11 31.6c-13.88,9.47 -44.82,-2.95 -41.77,-41.11 1.55,-19.38 13.46,-34.28 33.09,-33.21 8.35,0.46 11.42,3.67 17.27,4.98l5.89 -12.17c-33.39,-20.96 -75.95,1.31 -75.52,46.17 0.21,21.92 10.09,37.57 23.13,45.74 17.49,10.94 36.98,8.13 55.83,1.02zm-246.7 -0.09l0.08 -42.82 -17.88 -0.12 -0.16 31.98c-27.38,10.63 -44.3,-16.31 -41.74,-42.12 1.96,-19.72 14.06,-33.62 33.18,-32.58 9.31,0.51 13.51,4.4 17.28,4.94l5.67 -11.98c-23.68,-18.54 -75.58,-5.99 -75.42,46.03 0.13,42.96 37.51,64.57 78.98,46.67zm325.32 4.55l15.87 0 9.08 -28.01 30.97 -0.01 8.02 27.91 19.78 0.11 -32.62 -103.58 -15.04 0.04 -33.63 97.33c-0.66,1.95 -1.28,5.77 -2.65,4.69l-18.79 -41.88c3.74,-3.25 3.49,-1.74 8.14,-7.17 2.46,-2.87 4.65,-6.56 6.22,-11.03 3.26,-9.29 2.49,-21.46 -2.05,-29.08 -4.08,-6.86 -11.37,-11.31 -21.71,-12.64 -6.24,-0.8 -27.52,-0.75 -33.91,-0.09l-0.21 103.14 17.82 0.3 0.19 -38.84 7.83 -0.3 16.49 39.04 20.19 0.07zm30.12 -41.04l22.56 -0.02 -10.95 -40.68c0.03,0.13 -0.12,0.19 -0.17,0.5 -0.05,0.3 -0.24,0.4 -0.3,0.54l-5.38 19.12c-1.44,4.73 -5.6,16.33 -5.76,20.54zm-339.19 -91.99l15.26 0.13 9 -28.01 31.06 -0.15 8 28.18 19.87 -0.02 -32.76 -103.61 -14.64 -0.02c-1.23,1.96 -35.47,99.73 -35.8,103.51zm29.57 -41.08l22.43 0.03c0.15,-2.45 -10.01,-38.45 -11.15,-40.17 -0.99,1.77 -11.37,38.8 -11.28,40.15zm329.96 41.22l15.08 0c2.83,-6.54 7.61,-27.37 10.16,-28.18l29.88 -0 8.12 28.1 19.65 0.07c-0.14,-3.73 -30.37,-96.62 -32.47,-103.61l-15.05 -0.05c-1.87,5.02 -35.16,99.94 -35.38,103.67zm29.18 -41.32l23 0.06 -11.35 -41.1 -11.64 41.04zm9.83 174.13l17.82 0.07 0.11 -38.91c16.43,-1.09 21.62,0.24 31.65,-9.54 6.46,-6.3 11.69,-18.07 9.79,-31.24 -4,-27.66 -31.98,-24.4 -59.11,-23.82l-0.26 103.45zm17.94 -52.16c14.22,0.54 22.96,-4.85 23.73,-18.42 0.91,-15.94 -7.95,-19.79 -23.51,-18.56l-0.22 36.99zm105.8 -11.9l-36.33 0.18 -0.08 -39.32 -17.68 -0.22 -0.09 103.47 17.63 0.04 0.16 -49.55 36.48 -0.3 -0.03 49.87 17.86 -0.07 0.1 -103.28 -17.46 -0.13c-1.44,4.84 -0.41,31.96 -0.56,39.31zm-245.12 -68.93l14.28 0.17 0.02 -72.95c1.57,0.39 10.72,15.61 12.23,17.98 10.24,16.08 26.94,39.77 37.91,54.9l12.86 0.09 0.26 -103.69 -14.39 0.04 -0.11 72.78 -37.08 -54.61c-4.69,-6.52 -9.18,-12.33 -12.76,-18.1l-13.04 -0.11 -0.16 103.49zm-359.57 0.02l14.26 0.15 0.3 -73.05c0.57,0.31 47.73,71.99 50.29,72.99l12.65 0.02 0.11 -103.36 -14.22 -0.32 -0.11 73.11 -24.65 -36.72c-4.39,-6.45 -7.83,-11.41 -12.67,-18.31 -3.02,-4.29 -9.66,-14.69 -13.03,-17.89l-12.87 -0.09 -0.07 103.48zm346.97 80.74c14.16,1.34 22.76,-5.32 23.83,-18.35 1.26,-15.34 -8.9,-20.53 -23.71,-18.48l-0.13 36.83zm-170.02 -52.27c-58.16,12.27 -43.45,117.68 15.1,105.67 24.91,-5.11 38.35,-30.85 35.67,-60.95 -2.21,-24.92 -22.49,-50.68 -50.77,-44.72zm3.12 14.74c-16.68,3.27 -21.83,22.55 -20.66,42.24 1.03,17.29 8.82,37.92 29.38,33.87 28.5,-5.62 27.99,-83.3 -8.72,-76.11zm117.16 -147.58c-55.46,11.3 -44.47,117.19 15.92,105.57 24.03,-4.62 38.72,-31.11 35.55,-60.97 -2.74,-25.8 -21.99,-50.61 -51.46,-44.6zm1.56 15.25c-17.55,5.97 -19.7,28.04 -18.06,44.48 1.69,17.03 10.67,36.53 30.65,30.59 14.74,-4.38 19.6,-25.85 18.24,-44.74 -1.22,-16.82 -11.32,-36.96 -30.83,-30.32zm-536.13 222.24l146.77 0.04 0.07 -236.71 -146.76 -0.04 -0.07 236.72z"/>
 </g>
</svg>
