<?xml version="1.0" encoding="UTF-8"?>
<!DOCTYPE svg PUBLIC "-//W3C//DTD SVG 1.1//EN" "http://www.w3.org/Graphics/SVG/1.1/DTD/svg11.dtd">
<!-- Creator: CorelDRAW 2020 (64-Bit) -->
<svg xmlns="http://www.w3.org/2000/svg" xml:space="preserve" width="3.05058in" height="0.786012in" version="1.1" style="shape-rendering:geometricPrecision; text-rendering:geometricPrecision; image-rendering:optimizeQuality; fill-rule:evenodd; clip-rule:evenodd"
viewBox="0 0 1265.01 325.94"
 xmlns:xlink="http://www.w3.org/1999/xlink"
 xmlns:xodm="http://www.corel.com/coreldraw/odm/2003">
 <defs>
  <style type="text/css">
   <![CDATA[
    .fil0 {fill:black;fill-opacity:0.200000}
   ]]>
  </style>
 </defs>
 <g id="Layer_x0020_1">
  <metadata id="CorelCorpID_0Corel-Layer"/>
  <path class="fil0" d="M1104.16 325.94l25.24 0c2.01,-0.69 6.65,-0.56 9.19,-0.83 26.52,-2.88 50.36,-14.05 69.64,-31.72 3.43,-3.14 4.41,-4.73 7.25,-7.71 4.7,-4.93 11.36,-15.46 14.58,-21.55 9.37,-17.76 13.92,-40.85 19.67,-61.81 3.39,-12.35 10.07,-35.93 12.68,-48.09l2.6 -17.98 0 -8.17c-1.52,-4.09 0.47,-29.8 -25.92,-45.32 -16.97,-9.99 -38.96,-11.35 -60.6,-7.22 -41.62,7.94 -69.49,31.88 -86.37,57.29 -8.93,13.44 -18.45,31.82 -19.89,51.73 -1.73,23.89 9.76,39.59 23.73,47.93 16.75,10 38.97,10.71 59.7,5.72 16.48,-3.97 29.47,-10.54 41.58,-20.97 1.65,-1.42 3.37,-3.57 4.73,-4.56 -0.7,4.93 -3.32,12.89 -4.64,17.84 -1.65,6.18 -3.13,11.82 -5.21,17.7 -7.68,21.63 -20.88,39.56 -41.6,49.14 -16.08,7.43 -26.53,4.33 -40.36,5.45 -1.23,3.73 -5.88,19.95 -6,23.15zm-617.12 -325.94l-8.15 0c-2.02,1.04 -6.35,1.82 -9.22,3.23 -25.87,12.71 -26.11,47.51 -0.15,47.43 20.52,-0.06 38.24,-22.78 31.59,-39.52 -3.65,-9.2 -11.04,-9.56 -14.07,-11.14zm-89.89 238.27l44.74 0.02 43.3 -161.74 -44.73 -0.02 -43.31 161.74zm-163.65 -0.04l44.71 -0.07 24.3 -90.7c2.57,-9.72 5.09,-20.8 8.14,-30.17 7.41,-22.79 38.91,-18.52 58.01,-18.52l28.64 0.01c5.55,0.06 6.37,-3.07 11.61,-7.87 1.79,-1.64 3.32,-2.96 5.13,-4.57 1.2,-1.07 9.21,-8.51 9.83,-9.81 -29.27,0 -58.54,0 -87.82,0 -14.97,0 -25.17,0.95 -37.54,6.63 -10.34,4.75 -19.02,11.79 -24.6,19.44 -7.27,9.96 -9.11,17.85 -12.58,31.47 -7.24,28.42 -15.67,58.21 -23.25,86.84 -1.46,5.53 -3.6,11.91 -4.6,17.33zm250.51 0.06l44.54 -0c0.99,-1.97 27.36,-101.61 27.84,-103.41 4.57,-17.11 5.73,-32.29 29.94,-35.64 8.85,-1.22 51.97,-0.24 65.32,-0.49 0.97,-1.81 21.51,-20.09 22.79,-22.19 -29.02,-0.59 -58.67,-0.03 -87.76,-0.03 -14.89,0 -25.06,0.87 -37.52,6.63 -9.3,4.3 -18.95,11.23 -24.7,19.35 -7.32,10.32 -8.96,17.34 -12.58,31.48l-23.27 86.84c-1.48,5.4 -3.69,12.24 -4.62,17.46zm372.48 -0.02l44.77 0.02 37.34 -139.54c11.27,0.02 52.2,-0.84 60.13,1.03 8.18,1.93 14.63,7.13 12.73,17.11 -0.74,3.89 -2.17,8.37 -3.22,12.21l-29.15 109.2 44.54 -0c1.07,-2.11 26.08,-96.77 27.93,-103.75 3.21,-12.1 7.98,-24.19 2.94,-36.81 -10.11,-25.31 -44.56,-21.2 -66.55,-21.2 -29.41,0 -58.82,0 -88.23,0l-43.23 161.73zm-215.73 -52.39l0 4.4c0,27.54 23.44,48.67 51.2,48.67 20.84,0 36.94,-6.95 51.26,-16.35 3.42,-2.24 6.23,-4.28 9.27,-6.6 3.29,-2.51 5.85,-4.99 8.81,-7.49 2.61,-2.21 14.81,-14.55 15.39,-17.52 -3.6,-2.3 -8.48,-7.73 -12.03,-10.86 -1.49,-1.32 -2.9,-2.29 -4.22,-3.72l-7.97 -7.44c-2.28,-1.9 -6.21,-6.29 -8.53,-7.38 -4.13,3.88 -6.68,8.75 -14.7,14.87 -2.93,2.24 -5.22,4.27 -8.55,6.43 -8.72,5.67 -21.56,12.7 -32.85,11.1 -8.97,-1.28 -13.49,-7.26 -13.49,-16.93 0,-11.76 6,-22.74 10.58,-30.82 9.06,-16.01 27.53,-31.31 43.98,-39.7 26.84,-13.68 69.1,-14.57 69.1,26.03 0,20.56 -6.25,36.03 -11.18,55.24 -2.17,8.46 -4.52,16.49 -6.69,25.02 -2.04,8.02 -5.36,17.69 -6.74,25.46l44.65 0c5.93,-26.74 24.34,-80.15 24.34,-102.19l0 -2.2c0,-40.28 -31.99,-59.46 -72.45,-59.46 -23.85,0 -50.56,7.89 -69.24,20.62 -11.39,7.77 -15.54,11.22 -24.85,20.51 -2.59,2.58 -4.57,4.86 -7.19,7.78 -13.32,14.88 -27.88,40.88 -27.88,62.53zm-640.76 -9.61l0 13.73c0.57,1.18 1.55,8.14 3.24,12.89 10.33,29.14 40.29,40.71 71.5,34.35 25.38,-5.17 42.95,-18.51 60.29,-33.95 2.01,-1.79 13.76,-14.23 14.68,-16.56l-22.66 -20.86c-2.71,-2.27 -11.61,-10.99 -13.54,-12.06l-8.07 8.89c-8.6,8.63 -16.99,15.57 -28.87,21.33 -17.45,8.46 -41.61,9.8 -39.5,-15.76 1.78,-21.68 16.66,-40.34 29.84,-53.78 6.83,-6.97 21.17,-16.47 29.48,-20.75 14.91,-7.67 36.27,-13.36 54.7,-6.97 38.05,13.2 16.23,71.17 8.9,98.78 -3.58,13.48 -11.68,41.12 -14.09,52.75l49.11 -0.11c6.6,-26.59 14.6,-54.24 21.7,-80.95 2.55,-9.59 4.5,-18.58 4.96,-29.05 3.06,-70.33 -74.53,-80.6 -126.69,-61.82 -17.53,6.31 -29.51,14.02 -43.41,24.87l-9.05 8.12c-2.72,3.08 -5.71,5.4 -8.46,8.73l-4.13 4.67c-8.47,9.52 -17.81,24.8 -22.76,36.7 -5.19,12.47 -6.49,25.29 -7.18,26.82zm1109.3 -3.61c0,44.88 69.25,48.55 99.88,-0.31 2.33,-3.71 4.72,-8.08 6.46,-12.5 4.14,-10.55 6.53,-21.26 6.53,-33.44 0,-21.16 -13.37,-30.28 -34.25,-30.28 -16.26,0 -30.37,6.75 -42.47,15.56l-7.96 6.57c-9.14,9.8 -11.37,10.92 -19.16,24.44 -4.18,7.25 -9.03,19.85 -9.03,29.95z"/>
 </g>
</svg>
