<?xml version="1.0" encoding="UTF-8"?>
<!DOCTYPE svg PUBLIC "-//W3C//DTD SVG 1.1//EN" "http://www.w3.org/Graphics/SVG/1.1/DTD/svg11.dtd">
<!-- Creator: CorelDRAW 2020 (64-Bit) -->
<svg xmlns="http://www.w3.org/2000/svg" xml:space="preserve" width="1.9296in" height="0.767299in" version="1.1" style="shape-rendering:geometricPrecision; text-rendering:geometricPrecision; image-rendering:optimizeQuality; fill-rule:evenodd; clip-rule:evenodd"
viewBox="0 0 6148.16 2444.79"
 xmlns:xlink="http://www.w3.org/1999/xlink"
 xmlns:xodm="http://www.corel.com/coreldraw/odm/2003">
 <defs>
  <style type="text/css">
   <![CDATA[
    .fil0 {fill:#373435;fill-opacity:0.200000}
   ]]>
  </style>
 </defs>
 <g id="Layer_x0020_1">
  <metadata id="CorelCorpID_0Corel-Layer"/>
  <path class="fil0" d="M3537.14 2444.79l655.52 0 285.85 -1313.88 485.39 1313.88 657.09 0 527.17 -2444.79 -655.51 0c-13.13,74.6 -275.47,1290.86 -286.99,1318.2l-484.45 -1318.2 -660.38 0c2.37,31.71 -111.92,539.88 -128.53,614.04l-264.18 1220.98c-27.76,125.37 -116.39,509.88 -130.99,609.77zm-3537.14 -1411.68l0 12.69 546.7 0.45 -301.58 1398.53 655.52 0 300.7 -1398.71 441.83 0.55 488.56 1398.15 657.97 0 974.27 -1760.34 -652.64 -0.4 -577.42 1034.6 -362.8 -1034.2 -889.81 0c18.53,-126.17 146.08,-631.8 143.73,-684.45l0.56 0 -274.79 236.57c-21.51,20.07 -48.9,39.63 -69.7,58.77 -24.01,22.09 -46.89,38.9 -68.97,59.38 -87.36,81.01 -246.83,205.89 -344.38,292.59 -32.24,28.66 -30.97,37.81 -87.32,37.23 -159.32,-1.63 -344.34,-7.55 -501.43,0.53 -19.77,67.73 -60.63,312.58 -79.02,348.04z"/>
 </g>
</svg>
