<?xml version="1.0" encoding="UTF-8"?>
<!DOCTYPE svg PUBLIC "-//W3C//DTD SVG 1.1//EN" "http://www.w3.org/Graphics/SVG/1.1/DTD/svg11.dtd">
<!-- Creator: CorelDRAW 2020 (64-Bit) -->
<svg xmlns="http://www.w3.org/2000/svg" xml:space="preserve" width="3.01398in" height="0.444878in" version="1.1" style="shape-rendering:geometricPrecision; text-rendering:geometricPrecision; image-rendering:optimizeQuality; fill-rule:evenodd; clip-rule:evenodd"
viewBox="0 0 19507.19 2879.36"
 xmlns:xlink="http://www.w3.org/1999/xlink"
 xmlns:xodm="http://www.corel.com/coreldraw/odm/2003">
 <defs>
  <style type="text/css">
   <![CDATA[
    .fil0 {fill:#373435;fill-opacity:0.200000}
   ]]>
  </style>
 </defs>
 <g id="Layer_x0020_1">
  <metadata id="CorelCorpID_0Corel-Layer"/>
  <path class="fil0" d="M12732.05 964.67c-40.46,2.14 -81.26,-12.66 -126.85,-15.01 -302.54,-15.52 -569.71,63.22 -783.45,274.38 -477.6,471.89 -334.98,1297.18 275.53,1564.73 656.81,287.86 1358.38,-171.77 1368.68,-862.08 5.94,-399.29 0.48,-802.86 0.48,-1202.64 0,-178.34 27.21,-416.06 -52.7,-542.55 -202.53,-320.71 -671.81,-173.99 -680.27,179.08 -4.79,199.77 6.75,405.31 -1.43,604.08zm-10691.43 542.14l0.2 1226.62c0.1,60.85 -6.52,47.27 129.93,47.24l548.74 -0.13c118.97,-0.28 90.05,46.32 90.05,-305.37l0 -806.97c0,-137.5 14.93,-257.28 -39.29,-366.14 -34.71,-69.64 -134.52,-144.45 -192.23,-211.11 -96.75,-111.76 -80.09,-162.04 21.81,-260.85 128.12,-124.27 311.97,-280.73 230.58,-539.59 -33.2,-105.62 -95.99,-174.37 -168.69,-226.78 -76.65,-55.27 -222.45,-77.92 -344.2,-54.66 -89.44,17.1 -184.97,107.86 -231.19,170.42 -62.45,84.55 -82.64,207.98 -58.33,323.74 47.96,228.41 347.82,344.66 307.28,491.13 -38.55,139.2 -295.05,181.25 -294.67,512.45zm6639.02 1286.14l724.81 1.61c15.37,-64.47 4.61,-2174.44 5.05,-2352.94 0.36,-141.24 -17.17,-225.97 -88.52,-307.07 -147.89,-168.13 -410.86,-165.81 -550.93,-9.1 -74.53,83.35 -94.38,156.91 -94.74,300.02 -0.43,172.56 -10.17,2300.65 4.33,2367.49zm-3869.46 -793.77l-725.78 -1.02c-4.51,115.84 -11.19,155.18 -62.51,237.97 -37.64,60.67 -101.54,130.72 -197.58,93.92 -127.15,-48.75 -193.53,-259.53 -193.38,-411.62 0.48,-507.54 410.27,-603.86 458.46,-94.97 51.14,13.63 648.29,9.76 733.73,3.87 6.34,-101.75 -65.03,-287.35 -103.25,-359.8 -60.03,-113.8 -118.97,-185.78 -202.96,-265.26 -576,-545.22 -1612.96,-166.77 -1620.41,699.95 -7.24,847 991.3,1284.05 1602.93,730.78 134.9,-122.03 318.87,-384.44 310.74,-633.82zm-4810.18 -200.36l0 995.66 729.53 -1.5c14.17,-62.81 4.26,-286.69 4.26,-366.22 0,-189.76 -22.04,-543.8 38.91,-703.36 85.69,-224.36 296.86,-244.24 387.85,3.03 43.06,116.98 38.22,190.5 38.2,329.12l0 556.82c-0.03,29.58 0.05,59.22 -0.2,88.8 -0.1,13.73 -1.15,35.88 -0.08,48.75 1.1,13.12 1.4,11.21 3.75,22.42l4.64 13.61c36.85,13.99 681.83,13.25 717.4,-0.64 21.2,-56.87 6.12,-477.06 6.12,-576.44 0,-193.53 10.68,-370.29 -32.28,-541.94 -157.86,-630.56 -886.47,-912.69 -1447.23,-572.69 -238.12,144.35 -382.42,381.71 -435.58,653.85 -12.28,62.96 5.5,15.85 -15.26,50.73zm18298.54 994.97c44.01,-160.15 -41.61,-872.22 43.65,-1069.63 31.52,-73.03 96.65,-175.8 193.79,-176.89 111.81,-1.25 153.68,90.92 191.14,180.1 48.85,116.37 42.3,190.35 42.3,328.17 0,104.37 -7.47,685.8 4.74,738.47l725.63 0.41c14.45,-94.18 3.31,-288.07 3.31,-391.88 0.1,-416.44 41.97,-706.01 -163.56,-1028.91 -195.42,-307 -651.58,-533.45 -1117.89,-373.73 -367.47,125.85 -647.94,463.99 -651.07,934.45 -1.81,266.33 2.93,533.53 -0.66,799.68 -1.04,75.12 -9.86,60.26 126.95,60.42 178.11,0.23 441.82,6.93 601.69,-0.66zm-2881.63 -685.57l-659.43 -1.38c-13.02,24.74 -23.52,59.96 -38.3,85.8 -178.19,311.66 -430.81,60.47 -427.91,-168.58l1129.43 -1.2c60.03,-534.14 -256.06,-1009.75 -788.44,-1068.63 -554.5,-61.31 -981.31,336.25 -1056.94,813.72 -86.41,545.71 303.56,1007.61 759.7,1091.47 305.65,56.19 546.9,-16.95 743.11,-154.54 90.56,-63.55 170.75,-151 226.58,-241.89 43.39,-70.63 130.29,-254.3 112.19,-354.75zm-1101.4 -368.48l427.22 -0.05c-6.04,-152.86 -201.56,-398.32 -363.39,-177.22 -25.07,34.25 -63.73,130.13 -63.83,177.27zm-5780.2 367.39l-651.2 -0.43c-33.25,49.94 -102.69,251.76 -265.46,230.78 -59.73,-7.72 -109.34,-60.01 -136.02,-115.3 -23.19,-48.01 -60.19,-138.64 -58.94,-197.96l1128.41 -1.4c75.81,-514.62 -254.48,-1002.13 -783.8,-1068.51 -549.86,-68.95 -1010.28,339.82 -1070.77,803.04 -74.35,569.58 280.98,1003.22 754.45,1101.61 386.58,80.32 773.38,-84.29 971.65,-392.69 43.06,-66.99 132.3,-255.27 111.68,-359.13zm-1086.8 -367.98l412.98 1.45c-2.06,-108.14 -106.79,-260.65 -203.67,-265.92 -135.1,-7.39 -208.26,190.8 -209.3,264.47zm-1759.35 -45.59c-26.55,-55.52 -0.64,-314.31 -9.17,-403.42 -37.38,-389.66 -561.86,-443.73 -700.33,-113.52 -44.57,106.23 -31.72,245.97 -31.72,378.63 -0.03,172.36 -12.03,1222.95 6.63,1242.67 1.78,1.02 4.69,0 5.68,2.29 1.02,2.37 4.43,1.78 5.91,2.11 41.89,9.05 685.8,3.11 713.17,2.32l3.08 -571.09c47.62,37.81 356.92,532.61 382.55,558.96 22.73,23.34 142.9,13.25 180.99,13.28 125.83,0.05 254.1,2.45 379.59,0.18 112.86,-2.04 204.64,-86.59 152.2,-193.1 -37.23,-75.7 -101.39,-155.87 -149.04,-230.35l-225.31 -338.49c-43.5,-64.37 -31.88,-65 4.74,-134.16 47.65,-90.05 93.9,-162.16 136.78,-240.67 46.15,-84.47 95.02,-158.7 131.59,-249 126,-311.08 -257.97,-623.91 -548.89,-427.37 -86.51,58.45 -116.32,123.1 -164.81,214.73 -43.17,81.59 -85.36,158.29 -134.74,243.88 -34.09,59.07 -103.76,208.54 -138.9,242.12zm10709.58 -737.02c-144.38,25.23 -222.32,31.78 -364.94,113.88 -320.96,184.74 -532.84,538.37 -482.9,960.36 58.17,491.28 501.88,908.61 1072.63,840.22 490.57,-58.79 914.7,-504.1 843.56,-1070.34 -35.37,-281.44 -161.27,-476.25 -334.19,-625.69 -149.37,-129.09 -441.51,-269.59 -734.17,-218.43zm78.56 523.84c-297.11,92.01 -247.27,935.44 63.81,865.9 303.15,-67.75 236.59,-958.94 -63.81,-865.9zm-6108.52 -525.5c-290.77,41.69 -475.1,147.1 -632.16,330.34 -344.35,401.81 -298.95,1002.89 106.08,1361.87 377.71,334.75 994.41,312.86 1362.46,-102.82 143.23,-161.78 263.5,-443.22 226.53,-736.41 -69.39,-550.09 -557.33,-925.48 -1062.9,-852.99zm71.32 524.71c-304.76,105.95 -236.44,930.35 66.12,867.18 191.49,-39.98 254.12,-487.43 134.49,-739.82 -28.34,-59.78 -104.8,-160.68 -200.61,-127.36zm2018.55 3.01c-220.26,106.84 -230.61,546.27 -119.79,750.09 148.17,272.65 409.79,59.45 392.9,-371.16 -6.88,-175.31 -118.46,-453.95 -273.11,-378.93z"/>
 </g>
</svg>
