<?xml version="1.0" encoding="UTF-8"?>
<!DOCTYPE svg PUBLIC "-//W3C//DTD SVG 1.1//EN" "http://www.w3.org/Graphics/SVG/1.1/DTD/svg11.dtd">
<!-- Creator: CorelDRAW 2020 (64-Bit) -->
<svg xmlns="http://www.w3.org/2000/svg" xml:space="preserve" width="2.77174in" height="1.38722in" version="1.1" style="shape-rendering:geometricPrecision; text-rendering:geometricPrecision; image-rendering:optimizeQuality; fill-rule:evenodd; clip-rule:evenodd"
viewBox="0 0 37886.08 18961.58"
 xmlns:xlink="http://www.w3.org/1999/xlink"
 xmlns:xodm="http://www.corel.com/coreldraw/odm/2003">
 <defs>
  <style type="text/css">
   <![CDATA[
    .fil2 {fill:none}
    .fil0 {fill:black;fill-opacity:0.200000}
    .fil1 {fill:#3D3D3D;fill-opacity:0.200000}
   ]]>
  </style>
 </defs>
 <g id="Layer_x0020_1">
  <metadata id="CorelCorpID_0Corel-Layer"/>
  <g id="_1242129680">
   <path class="fil0" d="M-0 18961.58l18953.56 0 0 -18961.58 -18953.56 0 0 18961.58zm15551.61 -3125.72l1.61 -2952.71c-178.82,78.14 -372.82,233.23 -559.72,340.59 -1494.3,858.17 -3387.74,1329.58 -5087.4,761.84 -909.62,-303.78 -1589.66,-935.07 -1993.21,-1609.3 -486.37,-812.64 -699.2,-1779.03 -698.83,-2895.45 1.18,-3815.89 2651.3,-5343.39 5863.56,-4544.47 489.92,121.83 895.57,276.66 1319.03,481.1 552.56,266.76 738.76,437.29 1156.3,658.63l0.16 -2952.34c-486.42,-158 -825.34,-437.99 -1845.82,-713.14 -2133.13,-575.11 -4664.21,-421.85 -6560.55,500.31 -2552.12,1241 -3738.02,3708.96 -3738.77,6569.92 -0.48,1584.39 337.25,2956.53 1027.31,4097.23 1881.06,3109.53 5843.43,3833.97 9244.84,2977.79 965.37,-243.02 1583.9,-632.85 1871.48,-719.98z"/>
   <path class="fil0" d="M25612.97 6882.74c12,144.44 510.91,1020.85 613.26,1212.43 218.16,408.39 422.49,807.26 648.13,1215.06 653.57,1181.32 1281.36,2470.92 1938.11,3655.57 217.68,392.52 445.9,815.93 646.95,1217.32 406.62,811.73 891,1623.83 1286.37,2435.67l4111.92 0 3.01 -14280.2 -3490.9 0 0 9761.03c-130.61,-163.54 -3659.45,-6878.43 -3902.8,-7332.84 -132.81,-248.08 -1241.75,-2405.05 -1331.62,-2428.19l-4053.42 -1.29 -3.55 14267.99 3439.4 0 13.51 -9782.71c174.79,7.91 46.17,-10.92 81.64,60.16z"/>
   <path class="fil1" d="M25612.97 6882.74c-35.46,-71.09 93.15,-52.25 -81.64,-60.16l-13.51 9782.71 -3439.4 0 3.55 -14267.99c-73.24,143.14 -25.94,10163.23 -25.94,10682.96 0,930.12 -38.05,2787.45 4.57,3600.79l3497.2 5.76c33.63,-795.37 3.39,-1646.87 3.39,-2437.23l-3.44 -7175.92c21.26,-197.55 -5.76,-74.26 55.21,-130.93z"/>
   <polygon class="fil2" points="18953.56,0 37886.08,0 37886.08,18932.52 18953.56,18932.52 "/>
  </g>
 </g>
</svg>
